<?xml version="1.0" encoding="utf-8"?>
<!-- Generator: Adobe Illustrator 16.0.0, SVG Export Plug-In . SVG Version: 6.00 Build 0)  -->
<!DOCTYPE svg PUBLIC "-//W3C//DTD SVG 1.1//EN" "http://www.w3.org/Graphics/SVG/1.1/DTD/svg11.dtd">
<svg version="1.1" id="Layer_1" xmlns="http://www.w3.org/2000/svg" xmlns:xlink="http://www.w3.org/1999/xlink" x="0px" y="0px"
	 width="920px" height="753.8px" viewBox="0 0 920 753.8" enable-background="new 0 0 920 753.8" xml:space="preserve">
<g>
	<polygon points="454.6,0 451.8,0 453.2,250.4 	"/>
	<polygon points="460.7,753.8 463.4,753.8 462,522.4 	"/>
	<polygon points="0.2,389 0.2,392.7 321.6,390.8 	"/>
	<polygon points="593.6,382 920.2,383.8 920.2,380.1 	"/>
	<polygon points="841,0 834.5,0 550.7,287.1 	"/>
	<polygon points="93.5,753.8 99.7,753.8 364.6,485.7 	"/>
	<polygon points="68.2,0 61.5,0 358.4,293.4 	"/>
	<polygon points="828.2,753.8 834.5,753.8 556.9,479.5 	"/>
	<polygon points="920.2,195.9 920.2,191.3 582,331.1 	"/>
	<polygon points="0.2,575 0.2,579.4 333.3,441.7 	"/>
	<polygon points="297.5,0 294,0 402.4,262.1 	"/>
	<polygon points="610.1,753.8 613.4,753.8 512.9,510.8 	"/>
	<polygon points="920.2,575.6 920.2,571.1 585,434.5 	"/>
	<polygon points="0.2,199.3 0.2,203.8 330.3,338.4 	"/>
	<polygon points="614.8,0 611.3,0 505.7,259.1 	"/>
	<polygon points="308.5,753.8 311.8,753.8 409.6,513.7 	"/>
	<polygon points="530,0 527,0 479.4,252.1 	"/>
	<polygon points="389.2,753.8 391.9,753.8 435.9,520.8 	"/>
	<polygon points="0.2,299.8 0.2,303.7 323.3,364.7 	"/>
	<polygon points="920.2,474 920.2,470.1 592,408.1 	"/>
	<polygon points="920.2,72.3 920.2,66.5 568,306.8 	"/>
	<polygon points="0.2,697.1 0.2,702.9 347.3,466.1 	"/>
	<polygon points="194.2,0 189.6,0 378,276.1 	"/>
	<polygon points="708.3,753.8 712.6,753.8 537.3,496.8 	"/>
	<polygon points="920.2,293.2 920.2,289.3 590.3,356 	"/>
	<polygon points="0.2,478.7 0.2,482.5 325,416.9 	"/>
	<polygon points="378.9,0 375.9,0 427.2,253.8 	"/>
	<polygon points="532.8,753.8 535.5,753.8 488.1,519 	"/>
	<polygon points="920.2,690.7 920.2,684.9 573.4,457.9 	"/>
	<polygon points="0.2,85.6 0.2,91.2 341.9,314.9 	"/>
	<polygon points="710.8,0 706.3,0 529.1,270.6 	"/>
	<polygon points="217.3,753.8 221.4,753.8 386.1,502.2 	"/>
	<polygon points="569,0 565.8,0 492,254.8 	"/>
	<polygon points="352.1,753.8 355,753.8 423.3,518.1 	"/>
	<polygon points="0.2,253.6 0.2,257.7 326,352 	"/>
	<polygon points="920.2,520.7 920.2,516.6 589.3,420.8 	"/>
	<polygon points="920.2,132.6 920.2,127.5 575.1,317.6 	"/>
	<polygon points="0.2,637.5 0.2,642.6 340.2,455.2 	"/>
	<polygon points="244.6,0 240.6,0 388.8,269 	"/>
	<polygon points="660.4,753.8 664.1,753.8 526.4,503.8 	"/>
	<polygon points="920.2,338.2 920.2,334.4 592.6,368.7 	"/>
	<polygon points="0.2,434.2 0.2,437.9 322.7,404.1 	"/>
	<polygon points="416.5,0 413.6,0 439.9,251.5 	"/>
	<polygon points="497,753.8 499.7,753.8 475.4,521.3 	"/>
	<polygon points="914.2,753.8 920.2,753.8 920.2,751.9 566.1,468.6 	"/>
	<polygon points="0.2,18.3 0.2,25 349.2,304.2 	"/>
	<polygon points="767.5,0 762.2,0 539.8,278 	"/>
	<polygon points="163.4,753.8 168.3,753.8 375.5,494.9 	"/>
	<polygon points="494.4,0 491.4,0 467.2,250.7 	"/>
	<polygon points="423,753.8 425.7,753.8 448.1,522.2 	"/>
	<polygon points="0.2,342 0.2,345.7 321.9,376.9 	"/>
	<polygon points="920.2,431.4 920.2,427.6 593.4,396 	"/>
	<polygon points="920.2,7.8 920.2,0.9 560.4,297.2 	"/>
	<polygon points="9.2,753.8 17.2,753.8 354.9,475.7 	"/>
	<polygon points="140.2,0 134.8,0 368.4,283.7 	"/>
	<polygon points="759.7,753.8 764.8,753.8 546.9,489.1 	"/>
	<polygon points="920.2,249 920.2,244.9 587,344.1 	"/>
	<polygon points="0.2,522.4 0.2,526.4 328.3,428.7 	"/>
	<polygon points="342,0 338.8,0 415.4,257.1 	"/>
	<polygon points="567.9,753.8 570.8,753.8 499.9,515.8 	"/>
	<polygon points="920.2,633.8 920.2,628.8 579.4,447.2 	"/>
	<polygon points="0.2,141.8 0.2,146.7 335.9,325.6 	"/>
	<polygon points="663.4,0 659.5,0 518.4,264.7 	"/>
	<polygon points="262.3,753.8 266,753.8 396.8,508.2 	"/>
	<polygon points="474.3,0 471.4,0 460.2,250.4 	"/>
	<polygon points="442,753.8 444.7,753.8 455.1,522.5 	"/>
	<polygon points="0.2,365.7 0.2,369.4 321.6,383.9 	"/>
	<polygon points="920.2,407.4 920.2,403.6 593.7,388.9 	"/>
	<polygon points="882.6,0 875.1,0 555.6,292 	"/>
	<polygon points="54,753.8 61,753.8 359.6,480.8 	"/>
	<polygon points="105.6,0 99.6,0 363.2,288.4 	"/>
	<polygon points="792.6,753.8 798.2,753.8 552.1,484.4 	"/>
	<polygon points="920.2,222.7 920.2,218.4 584.6,337.5 	"/>
	<polygon points="0.2,548.4 0.2,552.6 330.6,435.3 	"/>
	<polygon points="320,0 316.7,0 408.8,259.4 	"/>
	<polygon points="588.8,753.8 591.8,753.8 506.5,513.4 	"/>
	<polygon points="920.2,603.8 920.2,599.1 582.4,440.9 	"/>
	<polygon points="0.2,171.5 0.2,176.1 332.9,332 	"/>
	<polygon points="638.3,0 634.7,0 512.1,261.7 	"/>
	<polygon points="286.2,753.8 289.6,753.8 403.2,511.1 	"/>
	<polygon points="550.6,0 547.5,0 486.2,253.4 	"/>
	<polygon points="369.6,753.8 372.4,753.8 429.1,519.5 	"/>
	<polygon points="0.2,275.4 0.2,279.4 324.6,357.9 	"/>
	<polygon points="920.2,498.7 920.2,494.7 590.7,414.9 	"/>
	<polygon points="920.2,105.4 920.2,100 571.9,312.5 	"/>
	<polygon points="0.2,664.4 0.2,669.8 343.4,460.3 	"/>
	<polygon points="221.9,0 217.6,0 383.7,272.2 	"/>
	<polygon points="682,753.8 686,753.8 531.6,500.7 	"/>
	<polygon points="920.2,317.4 920.2,313.6 591.6,362.7 	"/>
	<polygon points="0.2,454.7 0.2,458.5 323.6,410.1 	"/>
	<polygon points="399.1,0 396.2,0 434,252.4 	"/>
	<polygon points="513.5,753.8 516.2,753.8 481.3,520.4 	"/>
	<polygon points="920.2,725.8 920.2,719.6 569.6,463.7 	"/>
	<polygon points="0.2,50.8 0.2,56.9 345.6,309.1 	"/>
	<polygon points="740.1,0 735.3,0 534.9,274.4 	"/>
	<polygon points="189.4,753.8 193.9,753.8 380.3,498.4 	"/>
	<polygon points="590.7,0 587.4,0 498.7,256.7 	"/>
	<polygon points="331.4,753.8 334.5,753.8 416.6,516.2 	"/>
	<polygon points="0.2,227.9 0.2,232.1 327.9,345.4 	"/>
	<polygon points="920.2,546.7 920.2,542.4 587.4,427.5 	"/>
	<polygon points="920.2,162.3 920.2,157.5 578.4,323.7 	"/>
	<polygon points="0.2,608.2 0.2,612.9 336.9,449.1 	"/>
	<polygon points="269.4,0 265.7,0 394.9,265.7 	"/>
	<polygon points="636.8,753.8 640.3,753.8 520.4,507.2 	"/>
	<polygon points="920.2,361.9 920.2,358.1 593.3,375.6 	"/>
	<polygon points="0.2,410.8 0.2,414.5 322,397.3 	"/>
	<polygon points="436.3,0 433.4,0 446.8,250.8 	"/>
	<polygon points="478.2,753.8 480.9,753.8 468.5,522.1 	"/>
	<polygon points="869.9,753.8 877.1,753.8 561.8,474 	"/>
	<polygon points="24.4,0 16.7,0 353.5,298.8 	"/>
	<polygon points="801.5,0 795.7,0 545.2,282.3 	"/>
	<polygon points="131.1,753.8 136.5,753.8 370,490.6 	"/>
	<polygon points="514.3,0 511.4,0 474.1,251.3 	"/>
	<polygon points="404,753.8 406.7,753.8 441.2,521.5 	"/>
	<polygon points="0.2,318.3 0.2,322.1 322.6,370 	"/>
	<polygon points="920.2,455.3 920.2,451.5 592.7,402.8 	"/>
	<polygon points="920.2,45.3 920.2,39 564.8,302.5 	"/>
	<polygon points="0.2,723.9 0.2,730.1 350.5,470.3 	"/>
	<polygon points="171.6,0 166.7,0 373.7,279.3 	"/>
	<polygon points="729.9,753.8 734.5,753.8 541.5,493.6 	"/>
	<polygon points="920.2,274.2 920.2,270.2 589,350.8 	"/>
	<polygon points="0.2,497.5 0.2,501.4 326.3,422.1 	"/>
	<polygon points="363,0 359.9,0 422,255.1 	"/>
	<polygon points="547.8,753.8 550.7,753.8 493.3,517.7 	"/>
	<polygon points="920.2,665.2 920.2,659.8 576.1,453.3 	"/>
	<polygon points="0.2,110.8 0.2,116.1 339.1,319.5 	"/>
	<polygon points="689.5,0 685.3,0 524.6,267.9 	"/>
	<polygon points="237.5,753.8 241.4,753.8 390.7,504.9 	"/>
</g>
</svg>
