<?xml version="1.0" encoding="utf-8"?>
<!-- Generator: Adobe Illustrator 16.0.0, SVG Export Plug-In . SVG Version: 6.00 Build 0)  -->
<!DOCTYPE svg PUBLIC "-//W3C//DTD SVG 1.1//EN" "http://www.w3.org/Graphics/SVG/1.1/DTD/svg11.dtd">
<svg version="1.1" id="Layer_1" xmlns="http://www.w3.org/2000/svg" xmlns:xlink="http://www.w3.org/1999/xlink" x="0px" y="0px"
	 width="920px" height="174px" viewBox="0 0 920 174" enable-background="new 0 0 920 174" xml:space="preserve">
<g>
	<path d="M31.7,80.4c0,7.5,0,14.9,0,22.4c-5.4,2.7-10.8,5.5-16.1,8.5c0-20.6,0-41.1,0-61.6c7.4-4.1,14.8-7.9,22.1-11.4
		c5.5-2.6,9.7-3.7,12.6-3.5c2.9,0.3,5.1,1.6,6.8,4c1.7,2.4,2.5,5.6,2.5,9.4c0,5.9-1.7,11.3-5.2,16.4c-3.4,5.1-8,8.8-13.8,11.5
		C37.7,77.5,34.7,79,31.7,80.4z M31.5,67.3c1.8-0.9,3.5-1.8,5.3-2.6c4.7-2.2,7-5.3,7-9.4c0-3.9-2.2-4.8-6.5-2.8
		c-1.9,0.9-3.9,1.9-5.8,2.9C31.5,59.4,31.5,63.3,31.5,67.3z"/>
	<path d="M89.8,79.8c-0.7-2.8-1.5-5.6-2.2-8.5c-3.5,1.1-6.9,2.2-10.4,3.4c-0.8,3.3-1.6,6.6-2.3,9.9c-3.2,1.1-6.5,2.3-9.7,3.5
		c4-17,8-33.8,12-50.6c4.2-1.4,8.4-2.8,12.6-4.1c4.1,14.2,8.1,28.5,12.2,42.9C97.9,77.4,93.8,78.6,89.8,79.8z M79.2,63.9
		c2.1-0.7,4.2-1.4,6.3-2c-1-4.1-2.1-8.3-3.1-12.4C81.3,54.3,80.2,59.1,79.2,63.9z"/>
	<path d="M143,68c-4.4,0.6-8.8,1.4-13.2,2.2c-1.9-5.6-3.8-11.1-5.7-16.6c-1.3,0.3-2.5,0.5-3.8,0.8c0,5.9,0,11.8,0,17.7
		c-4,0.8-8,1.7-11.9,2.7c0-15.4,0-30.9,0-46.3c6.8-1.7,13.5-3.1,20.3-4.4c4.5-0.8,8-0.2,10.4,2c2.5,2.1,3.7,5.2,3.7,9.3
		c0,2.7-0.5,5.1-1.4,7.3c-0.9,2.2-2.8,4.3-5.5,6.3C138.3,55.2,140.7,61.6,143,68z M120.4,44.4c1.7-0.4,3.4-0.7,5.1-1
		c1.5-0.3,2.7-0.9,3.6-1.8c0.9-0.9,1.4-2.1,1.4-3.5c0-3-1.5-4.2-4.6-3.6c-1.8,0.4-3.7,0.7-5.5,1.1C120.4,38.5,120.4,41.4,120.4,44.4
		z"/>
	<path d="M183.1,17.7c0,10.2,0,20.5,0,30.7c0,5.8-1.4,10.1-4.3,12.8c-2.9,2.7-6.7,4.2-11.3,4.6c-4.9,0.4-8.8-0.4-11.8-2.5
		c-3-2.1-4.5-5.9-4.5-11.4c0-10.5,0-21,0-31.5c4-0.5,8.1-1,12.1-1.3c0,9.9,0,19.9,0,29.8c0,2.2,0.4,3.8,1.2,4.7
		c0.8,0.9,2,1.3,3.8,1.2c1.4-0.1,2.6-0.6,3.5-1.4c0.9-0.8,1.5-1.7,1.6-2.6c0.2-0.9,0.3-2.8,0.3-5.5c0-9.1,0-18.1,0-27.2
		C176.8,18.1,179.9,17.9,183.1,17.7z"/>
	<path d="M225.6,64.2c-3.2-0.1-6.5-0.3-9.7-0.3c-3.5-6.9-7.1-13.8-10.6-20.7c-1.4-2.6-2.7-5.8-4.1-9.6c0.6,3,0.9,5.5,0.9,7.6
		c0,7.5,0,15,0,22.5c-3.2,0-6.5,0.1-9.7,0.1c0-15.5,0-30.9,0-46.4c3.8-0.1,7.5-0.1,11.3-0.2c3,5.7,6,11.4,9.1,17.1
		c1.8,3.4,3.2,6.4,4.1,9c-0.6-4-0.9-8.1-0.9-12.2c0-4.6,0-9.2,0-13.7c3.2,0.1,6.5,0.2,9.7,0.3C225.6,33.2,225.6,48.7,225.6,64.2z"/>
	<path d="M252.3,39.5c0-3.4,0-6.8,0-10.2c1.7-3.1,3.3-6.2,5-9.2c1.5,0.2,3,0.3,4.5,0.5c-1.3,2.9-2.7,5.8-4,8.7
		c1.3,0.1,2.7,0.3,4,0.4c0,3.6,0,7.2,0,10.8C258.6,40.1,255.4,39.8,252.3,39.5z M263.8,40.7c0-3.4,0-6.8,0-10.2
		c1.7-3,3.4-6.1,5.1-9.1c1.5,0.2,2.9,0.4,4.4,0.6c-1.3,2.9-2.6,5.7-3.9,8.6c1.3,0.2,2.6,0.3,3.9,0.5c0,3.6,0,7.2,0,10.8
		C270.1,41.4,266.9,41,263.8,40.7z"/>
	<path d="M327.8,77.7c-4.3-0.9-8.6-1.7-12.9-2.5c-4.7-10-9.5-20-14.2-30c-1.8-3.8-3.7-8.4-5.5-13.7c0.8,4.1,1.3,7.6,1.3,10.4
		c0,10,0,20,0,30c-4.3-0.7-8.6-1.4-12.9-2c0-20.7,0-41.3,0-62c5,0.7,10,1.5,15,2.3c4,8.2,8,16.5,12.1,24.8c2.4,5,4.2,9.3,5.5,12.9
		c-0.8-5.5-1.2-11-1.2-16.5c0-6.1,0-12.2,0-18.4c4.3,0.8,8.6,1.7,12.9,2.5C327.8,36.3,327.8,57,327.8,77.7z"/>
	<path d="M356.4,84.7c-5.5-1.3-9.9-4.4-13.4-9.5c-3.4-5.1-5.2-11.3-5.2-18.6c0-7,1.6-12.4,4.9-16.2c3.3-3.8,7.9-5.1,13.7-3.7
		c5.4,1.3,9.8,4.5,13.2,9.6c3.4,5.1,5.1,11.2,5.1,18.4c0,7.4-1.7,12.9-5.2,16.5C366.3,84.8,361.8,85.9,356.4,84.7z M356.4,74.1
		c2,0.5,3.5-0.2,4.3-2.1c0.9-1.9,1.3-5.6,1.3-11.2c0-8.1-1.8-12.6-5.4-13.4c-3.9-0.9-5.9,3.3-5.9,12.5
		C350.7,68.4,352.6,73.2,356.4,74.1z"/>
	<path d="M398.8,59c0,11.8,0,23.6,0,35.5c-3.8-1-7.5-2-11.3-2.9c0-11.8,0-23.6,0-35.5c-2.7-0.7-5.4-1.4-8.1-2c0-3.7,0-7.4,0-11.2
		c9.1,2.3,18.3,4.7,27.4,7.1c0,3.7,0,7.4,0,11.2C404.2,60.4,401.5,59.7,398.8,59z"/>
	<path d="M442.4,95.2c0,3.7,0,7.4,0,11.2c-9.7-2.7-19.5-5.4-29.2-8c0-15.6,0-31.1,0-46.7c9.7,2.6,19.5,5.3,29.2,8
		c0,3.6,0,7.2,0,10.8c-5.8-1.6-11.7-3.2-17.5-4.8c0,2.3,0,4.5,0,6.8c4.7,1.3,9.5,2.6,14.2,3.9c0,3.5,0,6.9,0,10.4
		c-4.7-1.3-9.5-2.6-14.2-3.9c0,2.5,0,5.1,0,7.6C430.7,92,436.5,93.6,442.4,95.2z"/>
	<path d="M458.9,64.3c0,3.4,0,6.8,0,10.3c-1.7,2.8-3.4,5.6-5,8.3c-1.5-0.4-2.9-0.8-4.4-1.2c1.3-2.7,2.6-5.4,3.9-8.1
		c-1.3-0.4-2.6-0.7-3.9-1.1c0-3.6,0-7.2,0-10.8C452.7,62.5,455.8,63.4,458.9,64.3z M470.5,67.5c0,3.4,0,6.8,0,10.3
		c-1.7,2.8-3.3,5.6-5,8.4c-1.5-0.4-3-0.8-4.5-1.3c1.3-2.7,2.7-5.4,4-8.1c-1.3-0.4-2.7-0.7-4-1.1c0-3.6,0-7.2,0-10.8
		C464.1,65.7,467.3,66.6,470.5,67.5z"/>
	<path d="M498.3,121.9c0-20.8,0-41.5,0-62.3c6.7,1.8,13.4,3.6,20,5.4c8.7,2.3,15.2,7.1,19.5,14.4c4.3,7.3,6.5,15,6.5,23.2
		c0,9.3-2.3,16.3-7,21c-4.6,4.6-10.7,6-18.1,4C512.3,125.7,505.3,123.8,498.3,121.9z M514.2,111.9c1.4,0.4,2.8,0.7,4.1,1.1
		c2.6,0.7,4.8-0.3,6.7-2.9c1.8-2.6,2.7-6.6,2.7-11.9c0-4.5-0.8-8.7-2.4-12.4c-1.6-3.7-3.9-6-7-6.8c-1.4-0.4-2.8-0.7-4.1-1.1
		C514.2,89.3,514.2,100.6,514.2,111.9z"/>
	<path d="M586.8,97.1c0,15.6,0,31.2,0,46.8c-4-0.9-8-1.7-11.9-2.6c0-6.1,0-12.1,0-18.2c-3-0.7-6.1-1.4-9.1-2.1c0,6.1,0,12.1,0,18.2
		c-4-0.9-8-1.9-11.9-2.9c0-15.6,0-31.2,0-46.8c4,1,8,1.9,11.9,2.8c0,5.7,0,11.5,0,17.2c3,0.7,6.1,1.4,9.1,2.1c0-5.7,0-11.5,0-17.2
		C578.9,95.4,582.8,96.3,586.8,97.1z"/>
	<path d="M617.9,150.1c-0.7-3.2-1.5-6.4-2.2-9.6c-3.5-0.6-6.9-1.3-10.4-1.9c-0.8,2.9-1.6,5.9-2.3,8.8c-3.2-0.6-6.5-1.3-9.7-2
		c4-14.8,8-29.6,12-44.5c4.2,0.8,8.4,1.6,12.6,2.3c4.1,16.3,8.1,32.6,12.2,48.9C626,151.5,622,150.8,617.9,150.1z M607.3,128.7
		c2.1,0.4,4.2,0.8,6.3,1.2c-1-4.7-2.1-9.4-3.1-14.2C609.4,120,608.4,124.3,607.3,128.7z"/>
	<path d="M671.1,157.4c-4.4-0.4-8.8-0.9-13.2-1.4c-1.9-6.2-3.8-12.4-5.7-18.6c-1.3-0.2-2.5-0.3-3.8-0.5c0,6,0,12,0,17.9
		c-4-0.5-8-1.1-11.9-1.7c0-15.6,0-31.3,0-46.9c6.8,1,13.5,1.9,20.3,2.7c4.5,0.5,8,2.2,10.4,4.9c2.5,2.8,3.7,6.2,3.7,10.4
		c0,2.7-0.5,5-1.4,7c-0.9,2-2.8,3.6-5.5,4.9C666.5,143.3,668.8,150.4,671.1,157.4z M648.5,126.9c1.7,0.2,3.4,0.4,5.1,0.7
		c1.5,0.2,2.7,0,3.6-0.7c0.9-0.6,1.4-1.7,1.4-3.2c0-3-1.5-4.7-4.6-5.1c-1.8-0.2-3.7-0.5-5.5-0.7
		C648.5,120.9,648.5,123.9,648.5,126.9z"/>
	<path d="M721.9,112.9c0,15.7,0,31.3,0,47c-3.7,0-7.4,0-11.1-0.1c0-11.2,0-22.4,0-33.6c-2.4,11.1-4.8,22.3-7.2,33.4
		c-2.5-0.1-5-0.2-7.6-0.3c-2.5-11.3-5-22.6-7.5-34c0,11.2,0,22.4,0,33.6c-3-0.2-6-0.4-8.9-0.6c0-15.6,0-31.3,0-46.9
		c5.2,0.4,10.4,0.7,15.6,1c1.9,8.4,3.8,16.8,5.6,25.2c1.8-8.2,3.6-16.5,5.4-24.8C711.5,112.8,716.7,112.9,721.9,112.9z"/>
	<path d="M743.7,142.1c0,5.7,0,11.4,0,17.1c-4,0.2-8.1,0.4-12.1,0.5c0-15.7,0-31.3,0-47c5.5-0.2,11.1-0.4,16.6-0.8
		c4.1-0.3,7.3,0,9.4,1c2.2,1,3.9,2.5,5.1,4.8c1.3,2.2,1.9,4.8,1.9,7.8c0,4.5-1.3,8.2-3.9,11.2c-2.6,3-6,4.7-10.3,5
		C748.2,141.9,746,142,743.7,142.1z M743.6,132c1.3-0.1,2.7-0.2,4-0.2c3.5-0.2,5.3-1.9,5.3-5.1c0-2.9-1.6-4.3-4.9-4.1
		c-1.5,0.1-2.9,0.2-4.4,0.3C743.6,126,743.6,129,743.6,132z"/>
	<path d="M791,153.8c-0.7-3-1.5-5.9-2.2-8.9c-3.5,0.6-6.9,1.1-10.4,1.6c-0.8,3.2-1.6,6.4-2.3,9.6c-3.2,0.4-6.5,0.8-9.7,1.2
		c4-16.1,8-32.3,12-48.5c4.2-0.6,8.4-1.3,12.6-2c4.1,15,8.1,29.9,12.2,44.7C799.1,152.4,795,153.1,791,153.8z M780.4,136
		c2.1-0.3,4.2-0.6,6.3-1c-1-4.4-2.1-8.8-3.1-13.1C782.5,126.6,781.4,131.3,780.4,136z"/>
	<path d="M842.8,140.8c-3.2,1.1-6.5,2.1-9.7,3.1c-3.5-5.9-7.1-11.8-10.6-17.8c-1.4-2.3-2.7-5.2-4.1-8.6c0.6,2.9,0.9,5.4,0.9,7.5
		c0,7.6,0,15.2,0,22.8c-3.2,0.8-6.5,1.6-9.7,2.4c0-15.7,0-31.4,0-47.1c3.8-0.9,7.5-1.8,11.3-2.8c3,5,6,9.9,9.1,14.7
		c1.8,2.9,3.2,5.5,4.1,7.8c-0.6-3.8-0.9-7.9-0.9-12.1c0-4.6,0-9.3,0-13.9c3.2-1,6.5-2,9.7-3.1C842.8,109.4,842.8,125.1,842.8,140.8z
		"/>
	<path d="M864.5,85.8c0,15.7,0,31.4,0,47.1c-4,1.6-8,3.1-11.9,4.6c0-15.7,0-31.4,0-47.1C856.5,88.9,860.5,87.4,864.5,85.8z"/>
	<path d="M907.9,29.7c0,17.3,0,34.6,0,52c0,8-0.6,14.4-1.8,19.2c-1.2,4.8-3.5,9.4-6.9,13.6c-3.4,4.2-8,7.8-13.9,10.6
		c-5.1,2.4-9.8,3.8-13.9,4.3c0-6.6,0-13.1,0-19.7c2.9-0.2,5.6-0.9,8.2-2.1c3-1.4,5.1-3.2,6.4-5.5c1.3-2.3,1.9-5.6,1.9-10
		c0-17.3,0-34.6,0-51.9C894.6,36.9,901.2,33.4,907.9,29.7z"/>
</g>
</svg>
