<?xml version="1.0" encoding="utf-8"?>
<!-- Generator: Adobe Illustrator 16.0.0, SVG Export Plug-In . SVG Version: 6.00 Build 0)  -->
<!DOCTYPE svg PUBLIC "-//W3C//DTD SVG 1.1//EN" "http://www.w3.org/Graphics/SVG/1.1/DTD/svg11.dtd">
<svg version="1.1" id="Layer_1" xmlns="http://www.w3.org/2000/svg" xmlns:xlink="http://www.w3.org/1999/xlink" x="0px" y="0px"
	 width="246.4px" height="168.6px" viewBox="0 0 246.4 168.6" enable-background="new 0 0 246.4 168.6" xml:space="preserve">
<rect fill="#80BFE8" stroke="#000000" stroke-miterlimit="10" width="246.4" height="168.6"/>
<ellipse cx="123.4" cy="116.1" rx="100.5" ry="0.6"/>
<ellipse cx="123.4" cy="122.5" rx="107.3" ry="0.6"/>
<ellipse cx="123.4" cy="128.8" rx="109.4" ry="0.6"/>
<ellipse cx="123.4" cy="135.2" rx="113.5" ry="0.6"/>
<ellipse cx="123.4" cy="141.6" rx="116.9" ry="0.6"/>
<ellipse cx="123.4" cy="147.9" rx="120.8" ry="0.6"/>
<ellipse cx="123.4" cy="154.3" rx="120.8" ry="0.6"/>
<ellipse cx="123.4" cy="160.7" rx="113.5" ry="0.6"/>
<ellipse cx="123.4" cy="71.5" rx="66" ry="0.6"/>
<ellipse cx="123.4" cy="77.8" rx="70.4" ry="0.6"/>
<ellipse cx="123.4" cy="84.2" rx="79.7" ry="0.6"/>
<ellipse cx="123.4" cy="90.6" rx="82.7" ry="0.6"/>
<ellipse cx="123.4" cy="97" rx="85.2" ry="0.6"/>
<ellipse cx="123.4" cy="103.3" rx="88" ry="0.6"/>
<ellipse cx="123.4" cy="109.7" rx="88" ry="0.6"/>
<path fill="#79C79F" stroke="#000000" stroke-width="2" stroke-miterlimit="10" d="M214.9,168.6l-1.5-39c0-12-21.1-23.3-42.7-23.3
	s-39.2,9.8-39.2,21.8l-3,40.5"/>
<circle fill="#C2B59B" stroke="#000000" stroke-width="2.1298" stroke-miterlimit="10" cx="172.5" cy="86.8" r="24.6"/>
<circle cx="161.2" cy="83.5" r="3.6"/>
<circle cx="184.2" cy="83.5" r="3.6"/>
<rect x="41.2" y="0" fill="none" stroke="#000000" stroke-miterlimit="10" width="164.1" height="168.6"/>
</svg>
